<mxfile host="app.diagrams.net" modified="2023-08-25T11:25:45.825Z" agent="Mozilla/5.0 (Windows NT 10.0; Win64; x64) AppleWebKit/537.36 (KHTML, like Gecko) Chrome/116.0.0.0 Safari/537.36" version="21.3.2" etag="t3_9tqLVJec_ILH5TOWd" type="github">
  <diagram name="PÃ¡gina-1" id="P7F2dvIigpsKwfovHlS_">
    <mxGraphModel>
      <root>
        <mxCell id="0" />
        <mxCell id="1" parent="0" />
      </root>
    </mxGraphModel>
  </diagram>
</mxfile>
